<svg version="1" xmlns="http://www.w3.org/2000/svg" width="666.667" height="666.667" viewBox="0 0 500.000000 500.000000"><path d="M226.5 1.1c-3.8.4-8.3 1-10 1.3-1.6.2-5 .8-7.5 1.1-3.9.6-8 1.3-16.7 3.1-1.2.2-3.5.9-5 1.5-1.6.6-2.9 1-3.1.9-.4-.2-14 3.9-18.7 5.7-7 2.6-26 10.6-27.1 11.5-.6.4-4.2 2.4-7.9 4.4-17.5 9.1-38.1 24.3-53.8 39.7-13.9 13.8-17.7 18-25.3 28.2-3.2 4.4-6.1 8.2-6.4 8.5-1.5 1.4-11.4 17.3-13 20.9-.6 1.3-1.9 3.5-2.8 5-5.4 7.8-18.9 43.2-22.6 59.3-1.4 6-2 9.2-4.1 23C.7 226.5.2 235.5.5 254c.2 11.3.6 21.8.9 23.5.3 1.6 1.3 7.7 2.2 13.5 5.8 37.9 23.6 79.4 46.5 108.7 2.7 3.5 4.9 6.5 4.9 6.9 0 2 28 29.9 39.9 39.6 7.7 6.4 40 26.9 43.1 27.4.3 0 3.7 1.5 7.5 3.3 7 3.3 23.7 10 26.5 10.7.8.2 6.2 1.7 12 3.4 11.3 3.3 28.2 6.5 42 7.9 8.4.9 46.2.7 51-.3 1.4-.2 7.5-1.2 13.5-2.1 18.8-2.9 36.9-8 55.5-15.8 15.9-6.6 42.8-21.3 43.8-23.9.2-.4.8-.8 1.3-.8s1.7-.6 2.6-1.4c1-.8 5-3.8 8.8-6.7 22.7-17.2 47-44.5 62.3-70.2 3.3-5.6 6.1-10.7 6.2-11.2.1-.6 1.2-2.8 2.5-5 8.7-15 19.8-48.9 22.9-70 .9-5.8 1.5-9.6 2.2-13 .9-5.1 1.2-43.6.4-51-1.2-9.8-2.1-16.6-2.6-19.5-.2-1.4-.7-4.3-1-6.4-.4-2.2-1.9-8.7-3.5-14.5-1.6-5.8-3.1-11.3-3.3-12.1-1.3-5.4-8.8-23.6-14.6-35.5-5.6-11.5-17.5-31.3-22-36.8-.5-.6-2.9-3.7-5.2-6.7-6.5-8.5-10.3-12.6-22.7-24.9-9.6-9.4-27.8-24.3-36.6-29.8-14.2-9-31.2-18-42-22.3-1.1-.4-3.3-1.3-5-2-10.2-4.2-33.6-11-42.5-12.4-1.9-.3-5.3-.8-7.5-1.1-2.2-.4-6.9-1.1-10.5-1.7-7.9-1.3-43.8-1.8-53.5-.7zM236 70v41h-47c-44.3 0-46.9-.1-46.3-1.8.4-.9 3.3-6.1 6.4-11.5 19.7-33.3 45.2-56.1 72.5-65 7.9-2.6 10.8-3.4 13.2-3.6.9-.1 1.2 8.7 1.2 40.9zm35-39.6c22.3 5.3 46.9 22.3 64 44.2 1.7 2.1 3.8 4.8 4.8 5.9 2.6 3.1 14.6 22.6 16.5 26.7l1.7 3.8h-94V70c0-22.6.3-41 .8-41 .4 0 3.2.6 6.2 1.4zm106 37.5c14.6 10.3 31.7 25.8 42.2 38.3l4 4.8h-34.8l-3.9-8.2c-7.5-15.5-18.4-33-27.2-43.5-2.4-2.8-4.3-5.4-4.3-5.7 0-.8 16.4 8.9 24 14.3zM144.5 56.7c-1 1.6-2.8 3.9-4 5.3-1.2 1.4-4.8 6.3-7.9 11-3 4.7-5.9 9-6.3 9.6-1.6 2.1-6.4 11.2-10.5 19.6l-4.2 8.8H76.8l4-4.8c9.6-11.4 21.1-22.2 34.7-32.6 4.4-3.4 8.2-6.4 8.5-6.7.3-.3 1.2-.9 2-1.2.8-.4 5.3-3.2 10-6.1 4.7-3 8.9-5.5 9.4-5.5.4-.1 0 1.1-.9 2.6zm-45.1 86.5c-3.6 10.2-10.3 40.2-12 53.8-.2 1.9-.6 5.1-.9 7-1.6 12.6-2.3 20.6-2.4 29.2L84 236H55.9c-15.4 0-27.8-.3-27.6-.8.3-.4.8-4.3 1.2-8.7.3-4.4.8-8.9 1-10 .3-1.1.7-3.8 1-5.9 2.2-15.9 11-41.8 20.8-61.3l5.1-10.3h43.5l-1.5 4.2zM236 187.5V236l-62.2-.2-62.3-.3.2-3c.2-4.7 1.4-19.7 1.8-22.5.2-1.4.6-4.5 1-7 1.7-11.8 2.3-15.4 3.5-21.5.6-2.8 1.2-6 1.5-7.3.2-1.3.7-3.2 1-4.2.3-1 .8-2.9 1-4.2.7-3.6 6.7-23.1 7.7-25.1.8-1.6 4.4-1.7 53.8-1.7h53v48.5zM372.3 145c1.8 5 7.2 24.5 8.3 29.5.8 3.7 3.4 18 3.8 21 .2 1.6.7 4.8 1.1 7 1.1 7.6 1.5 11 2.1 21 .3 5.5.7 10.4.8 11 .1.7-21.4 1.1-62.1 1.3l-62.3.2v-97l53.2.2 53.2.3 1.9 5.5zm75.5 4.3c10.6 21.4 19.5 49 21.6 67.2 2 16.1 2.2 18.6 1.8 19-.3.3-12.8.5-27.9.5H416l-.1-4.3c0-2.3-.2-5.8-.4-7.7-.2-1.9-.6-7.1-.9-11.4-1.2-15-6.4-41.6-13-66.6-.2-.8-.9-2.7-1.5-4.3L399 139h43.7l5.1 10.3zM84.1 268.7c0 2.7.2 6.4.4 8.3.2 1.9.6 6.9 1 11 .3 4.1.8 8.4 1 9.5.3 1.1.7 3.8 1 6 1.7 12.2 4.9 27.9 9 43.5.3.8.8 3.1 1.3 5 .5 2 1.4 4.5 2 5.7.7 1.2 1.2 2.4 1.2 2.7 0 .3-9.8.6-21.8.6H57.4l-5.3-10.6c-10.6-21.3-19.2-48-21.5-67-1.2-9.5-1.9-17.5-1.7-18.7 0-.4 12.5-.7 27.6-.7H84l.1 4.7zM236 312.5V361l-53.1-.2-53.1-.3-2.4-6.5c-1.3-3.6-4-12.7-5.9-20.3-3-12-4.1-17.6-6-29.7-.2-1.4-.6-4.3-1-6.5-1-7.1-1.4-10.8-2.1-19.8-.3-4.9-.7-9.9-.9-11.3l-.2-2.4H236v48.5zm152.4-47c-.1.5-.5 5.7-.8 11.5-.4 5.8-.9 11.6-1.1 13-.2 1.4-.6 4.7-1 7.5-.5 4.1-3.2 19.3-4.9 28-.9 4.5-7.1 26.3-8.7 30.5l-1.7 4.5-53.1.3-53.1.2v-97l62.3.2c40.7.2 62.2.6 62.1 1.3zm83.3-.8c-.3.5-.8 4.2-1.1 8.3-.4 4.1-.9 8.2-1.1 9-.2.8-.6 3.7-1 6.5-1.1 9-6.6 29-11.4 41.5-1.2 3-4.9 11.2-8.3 18.2l-6.2 12.8h-43.4l1.5-4.8c1.9-6.1 8-29.8 8.6-33.7 1.1-6.8 3.8-23.2 4.2-25.5.4-2.3 1.2-9.9 2-19.5.2-2.2.4-6.1.4-8.8l.1-4.7h28.1c15.4 0 27.8.3 27.6.7zM115.5 397.2c6.9 14.4 17.8 32 26.5 42.8 2 2.5 4 5.1 4.4 5.8.6 1.1-18.1-9.3-19.4-10.8-.3-.3-3-2.3-6-4.4-13.9-9.9-27.7-22.4-38.8-35.4l-5.4-6.2h34.8l3.9 8.2zM236 430.1v41.1l-3.2-.7c-9.7-2-22.8-7-28.3-10.9-1.6-1.1-3.2-2-3.5-1.9-1 .3-16.6-11.5-21.5-16.4-13.3-13.1-27-31.4-34.4-46.1L142 389h94v41.1zm120.8-38.4c-5.8 13.3-22.1 35.6-36.3 49.6-10.8 10.7-31.5 23.5-42.2 26.2-.6.2-2.7.8-4.5 1.3-1.8.6-4.8 1.3-6.5 1.6l-3.3.5V389h94l-1.2 2.7zm62.4 2.1c-15.7 18.7-38 37.1-60.5 49.9-6.2 3.5-6.3 3.2-.7-3.7 8.3-10.2 19.2-27.7 26-41.8l4.4-9.2h34.8l-4 4.8z"/></svg>